# xmcd CD database file
#
# Track frame offsets:
#	150
#	22910
#	38375
#	53525
#	78750
#	95110
#	112600
#	135495
#	154490
#	167287
#	190970
#	213590
#	233702
#	253857
#	269537
#	296605
#
# Disc length: 4282 seconds
#
# Revision: 0
# Processed by: cddbd v1.5PL3 Copyright (c) Steve Scherf et al.
# Submitted via: CDex 1.51
#
DISCID=cc10b810
DTITLE=大友裕子 - 大友裕子ベスト
DYEAR=2003
DGENRE=JPop
TTITLE0=傷心
TTITLE1=独枕
TTITLE2=火の鳥
TTITLE3=蜉蝣のように
TTITLE4=アンニュイ
TTITLE5=フォービートで愛して
TTITLE6=かわいい女とよばれたくて
TTITLE7=うそ
TTITLE8=ボヘミアン
TTITLE9=浮気のへたな男
TTITLE10=来夢来人
TTITLE11=旅先
TTITLE12=静かにしずかに
TTITLE13=手切れ金
TTITLE14=歩けないの
TTITLE15=死顔
EXTD=YEAR: 2003
EXTT0=
EXTT1=
EXTT2=
EXTT3=
EXTT4=
EXTT5=
EXTT6=
EXTT7=
EXTT8=
EXTT9=
EXTT10=
EXTT11=
EXTT12=
EXTT13=
EXTT14=
EXTT15=
PLAYORDER=
